<?xml version="1.0" standalone="no"?>
<!DOCTYPE svg PUBLIC "-//W3C//DTD SVG 20010904//EN"
 "http://www.w3.org/TR/2001/REC-SVG-20010904/DTD/svg10.dtd">
<svg version="1.0" xmlns="http://www.w3.org/2000/svg"
 width="697.000000pt" height="697.000000pt" viewBox="0 0 697.000000 697.000000"
 preserveAspectRatio="xMidYMid meet">
<metadata>
Created by potrace 1.14, written by Peter Selinger 2001-2017
</metadata>
<g transform="translate(0.000000,697.000000) scale(0.100000,-0.100000)"
fill="#000000" stroke="none">
<path d="M1420 6681 c-19 -10 -45 -36 -58 -57 -19 -33 -22 -51 -20 -114 4 -98
47 -191 127 -271 115 -115 284 -127 327 -24 30 73 10 200 -47 301 -32 57 -113
140 -161 167 -43 23 -124 22 -168 -2z"/>
<path d="M2715 6504 c-71 -26 -168 -147 -151 -189 11 -29 72 -18 115 20 37 34
128 162 120 169 -14 12 -50 12 -84 0z"/>
<path d="M3323 6491 c-24 -17 -49 -48 -63 -77 -24 -53 -24 -51 -4 -426 l7
-116 -54 -11 c-30 -5 -107 -19 -172 -31 -144 -25 -189 -42 -226 -87 l-29 -35
-74 12 c-103 18 -113 23 -138 74 -46 97 -138 144 -298 153 l-92 6 -56 48 c-85
75 -106 84 -204 84 -77 0 -91 -3 -155 -35 -82 -41 -208 -160 -270 -254 -55
-84 -122 -242 -151 -355 -43 -166 -44 -167 -159 -221 -130 -62 -174 -95 -209
-160 -88 -162 18 -290 215 -259 133 21 155 22 187 5 37 -19 52 -44 52 -86 0
-42 -21 -89 -59 -133 -40 -45 -44 -87 -10 -123 24 -26 210 -124 234 -124 56 0
-10 -102 -92 -144 -18 -9 -101 -39 -186 -66 -491 -159 -766 -444 -863 -895
-23 -109 -23 -313 0 -420 53 -241 197 -448 421 -605 43 -30 128 -92 189 -138
131 -98 264 -167 361 -187 91 -19 257 -19 365 0 47 8 88 15 92 15 4 0 -5 -26
-21 -57 -43 -85 -63 -166 -63 -250 0 -66 4 -84 36 -148 41 -82 89 -131 173
-172 29 -14 53 -27 53 -28 0 -2 -16 -27 -36 -56 -84 -124 -118 -239 -112 -385
3 -95 6 -107 43 -180 56 -114 172 -228 286 -282 222 -107 480 -75 727 88 167
109 322 282 426 472 52 95 113 272 122 354 4 30 10 57 14 59 4 3 27 -20 51
-51 119 -155 324 -251 472 -223 86 16 156 56 238 138 62 62 86 96 130 183 30
60 56 108 59 108 3 0 49 -38 104 -85 127 -109 179 -135 267 -135 175 0 322 97
431 283 23 40 43 73 44 75 1 2 19 -4 39 -12 21 -9 64 -16 96 -16 48 0 71 7
133 39 56 29 76 35 80 25 3 -7 42 -40 86 -74 101 -74 177 -100 297 -100 439 0
756 470 568 841 -49 96 -149 173 -240 186 -50 6 -49 4 -59 134 -7 95 -37 164
-101 234 -30 33 -55 61 -55 64 0 2 22 73 50 158 165 511 169 695 15 849 -60
60 -117 92 -180 101 l-46 6 7 61 c8 75 9 76 43 76 52 0 221 49 297 85 98 47
197 142 214 204 23 88 -16 171 -114 238 -104 71 -234 82 -343 27 l-60 -29 -6
100 c-10 173 -57 273 -157 332 -86 52 -158 45 -220 -20 l-33 -35 -49 49 c-27
27 -66 58 -88 69 -21 11 -47 34 -58 52 -49 79 -122 125 -233 148 -31 6 -83 27
-115 47 -33 20 -83 51 -112 69 -69 42 -165 60 -243 46 -137 -26 -223 -96 -298
-242 l-51 -99 -48 -5 c-176 -21 -237 -40 -288 -91 l-24 -24 -44 47 c-35 37
-48 60 -60 112 -9 36 -30 84 -46 108 -17 23 -30 45 -30 48 0 3 17 12 37 20 20
9 52 28 71 42 47 36 127 152 148 214 39 118 -18 271 -121 326 -19 10 -68 18
-129 21 l-100 6 -12 70 c-42 245 -176 405 -339 405 -30 0 -53 -8 -82 -29z
m151 -136 c55 -51 82 -165 92 -387 4 -82 9 -148 11 -148 2 0 57 18 121 39 64
21 132 42 150 46 31 6 32 5 32 -26 0 -70 -68 -134 -195 -183 -38 -15 -82 -32
-96 -37 -24 -10 -26 -15 -37 -137 -28 -290 -43 -495 -38 -508 4 -11 18 -14 48
-12 l43 3 50 100 c28 55 61 125 73 155 22 51 24 54 34 32 28 -57 -45 -330
-116 -436 -74 -110 -146 -132 -225 -68 -61 49 -76 91 -80 229 -3 109 22 502
35 545 7 25 -5 27 -86 13 -92 -17 -281 -18 -334 -2 -51 16 -83 56 -67 85 14
27 45 34 261 67 256 37 234 27 238 116 2 41 -2 137 -8 214 -25 304 -25 280 -1
304 28 28 62 27 95 -4z m-1145 -545 c71 -36 76 -59 76 -345 -1 -286 -2 -292
-77 -337 -46 -26 -48 -26 -58 -8 -14 27 -12 154 6 346 9 92 13 182 9 201 -5
29 -9 33 -28 27 -141 -43 -243 -202 -306 -477 -58 -251 -68 -554 -22 -650 32
-65 72 -97 122 -97 83 0 187 84 247 200 29 57 32 71 32 150 0 79 -2 89 -22
102 -21 14 -21 15 -3 42 39 59 154 87 194 47 35 -35 51 -115 51 -250 0 -129 5
-171 21 -171 10 0 105 142 137 205 19 37 19 47 9 118 -14 95 1 228 38 344 61
190 157 275 276 243 87 -24 118 -93 100 -219 -15 -99 -59 -191 -150 -311 -39
-52 -70 -101 -69 -109 6 -27 54 -53 101 -53 68 0 130 33 211 112 40 38 76 70
79 70 15 0 6 -55 -15 -98 -37 -74 -119 -155 -189 -187 -53 -24 -71 -27 -128
-23 -43 3 -83 14 -116 31 l-50 25 -114 -170 -113 -169 16 -262 c43 -723 29
-1022 -64 -1298 -103 -307 -313 -549 -561 -647 -121 -48 -173 -57 -319 -57
-109 1 -150 5 -214 23 -270 77 -485 275 -561 515 -71 222 -71 396 -1 595 37
107 89 187 180 277 171 170 398 241 548 173 31 -15 64 -37 72 -51 18 -27 38
-88 31 -95 -2 -2 -36 -10 -77 -18 -219 -42 -413 -227 -473 -454 -64 -240 66
-496 288 -569 208 -68 375 -40 553 93 184 140 305 401 370 803 32 204 57 674
35 687 -31 19 -260 -207 -362 -357 -72 -105 -84 -116 -121 -117 -40 0 -59 34
-48 83 33 149 213 364 434 521 53 38 98 72 101 76 6 10 -15 112 -26 124 -4 5
-31 -12 -59 -37 -29 -26 -82 -61 -118 -79 -61 -30 -75 -33 -157 -32 -118 0
-186 26 -259 97 -98 97 -131 203 -130 417 1 213 50 413 151 614 57 115 92 166
172 250 137 142 251 187 350 136z m2932 -569 c25 -26 29 -37 29 -88 -1 -241
-171 -475 -431 -591 -161 -73 -307 -65 -386 20 -46 49 -57 131 -23 185 22 37
33 40 150 46 145 8 208 54 341 247 114 168 164 209 247 210 35 0 49 -6 73 -29z
m572 -226 c32 -31 40 -84 34 -229 -3 -78 -13 -179 -22 -224 -9 -46 -14 -86
-12 -89 5 -5 149 51 282 110 137 61 213 65 237 12 33 -73 -83 -146 -387 -244
-71 -23 -137 -46 -145 -50 -31 -16 -118 -650 -127 -926 -7 -206 9 -249 82
-231 60 15 117 181 176 511 33 187 40 218 50 208 16 -16 26 -208 18 -320 -15
-188 -62 -390 -114 -493 -44 -85 -114 -131 -202 -129 -135 2 -201 80 -218 259
-10 100 11 341 60 677 25 169 45 318 45 333 0 27 -1 27 -83 33 -109 9 -238 32
-274 49 -22 10 -29 21 -31 51 -4 51 18 84 63 93 21 4 100 -4 201 -21 91 -14
167 -25 170 -23 7 7 53 302 69 438 9 74 23 154 31 178 14 38 19 42 49 42 19 0
40 -7 48 -15z m-2538 -513 c82 -39 156 -121 185 -204 30 -87 38 -238 16 -304
-20 -60 -68 -120 -86 -109 -9 6 -10 35 -5 124 9 158 -12 229 -88 285 -34 25
-142 34 -190 15 -140 -56 -237 -219 -237 -398 0 -156 61 -298 229 -531 178
-248 251 -419 251 -585 0 -127 -39 -224 -112 -278 -47 -34 -91 -47 -167 -47
-122 0 -224 74 -257 186 -15 53 -12 76 14 107 23 26 56 21 123 -23 97 -63 154
-65 190 -7 26 43 24 100 -6 194 -32 101 -88 196 -225 379 -65 87 -130 187
-156 239 -109 224 -112 507 -8 706 118 224 351 335 529 251z m530 -72 c16 -18
17 -33 12 -147 -4 -71 -13 -177 -21 -238 -13 -98 -47 -446 -59 -612 -3 -35 -2
-63 2 -63 4 0 22 31 39 68 88 186 197 327 287 368 28 13 59 24 70 24 36 0 85
-39 105 -83 26 -56 25 -101 -6 -248 -51 -250 -51 -402 1 -446 44 -38 71 -30
140 40 34 34 75 80 93 101 l31 39 7 -29 c14 -55 -111 -246 -191 -291 -103 -58
-215 0 -256 132 -27 90 -4 321 47 473 25 75 24 92 -2 92 -57 0 -123 -83 -209
-264 -80 -168 -103 -245 -155 -526 -13 -72 -41 -116 -85 -137 -43 -21 -85 -9
-101 27 -18 40 0 721 25 965 38 369 87 649 126 725 26 51 69 64 100 30z m1066
-314 c66 -44 68 -72 21 -271 -50 -209 -72 -355 -72 -471 0 -108 12 -154 51
-198 28 -32 100 -66 140 -66 27 0 47 -26 42 -55 -12 -60 -122 -113 -213 -102
-92 11 -152 55 -192 142 -21 46 -23 63 -22 215 0 159 15 312 54 585 28 196 38
235 63 246 33 13 85 3 128 -25z m1214 -1331 c82 -62 98 -187 44 -349 -52 -158
-149 -308 -227 -353 -26 -14 -49 -28 -51 -30 -7 -5 33 -45 61 -59 38 -20 125
-17 174 5 83 38 168 138 243 289 17 34 36 62 43 62 18 0 3 -127 -25 -202 -84
-232 -240 -351 -419 -319 -101 18 -191 77 -219 142 -6 16 -14 29 -18 29 -12 0
-65 -61 -123 -140 -100 -138 -152 -165 -226 -120 -79 49 -94 171 -52 440 13
80 24 170 24 200 1 50 -1 55 -22 58 -30 5 -54 -18 -99 -91 -79 -130 -133 -310
-158 -519 -15 -134 -31 -182 -63 -190 -23 -7 -44 4 -103 54 l-47 38 -30 -53
c-35 -63 -125 -147 -156 -147 -35 0 -86 38 -102 76 -17 40 -17 38 26 304 45
272 73 480 66 487 -3 3 -26 -12 -50 -35 -47 -43 -188 -150 -234 -178 l-28 -16
0 -146 c-2 -273 -78 -489 -232 -653 -132 -142 -281 -150 -407 -24 -114 114
-163 353 -121 590 24 131 55 202 154 351 85 126 173 208 246 229 124 36 230
-25 306 -175 29 -57 32 -60 53 -49 84 44 227 165 298 252 113 138 124 145 174
105 l27 -21 -6 -116 c-3 -64 -9 -225 -12 -358 -6 -213 -5 -243 8 -243 25 0 34
18 82 165 54 165 173 409 248 509 80 106 154 149 225 131 40 -10 109 -83 122
-130 17 -60 14 -95 -23 -317 -19 -112 -38 -242 -42 -289 -11 -141 13 -131 143
55 l77 111 2 100 c4 242 122 488 266 556 61 28 134 22 183 -16z m-3275 -491
c153 -39 278 -141 349 -285 69 -141 84 -216 85 -414 0 -153 -3 -180 -27 -270
-90 -335 -340 -598 -648 -680 -93 -24 -261 -17 -341 14 -105 41 -208 158 -208
237 0 17 7 55 16 85 20 65 96 149 136 149 33 0 87 -37 116 -80 30 -45 24 -77
-28 -147 l-41 -53 28 -11 c56 -22 273 4 273 33 0 14 -61 401 -109 698 -22 129
-45 290 -51 358 -7 67 -16 122 -20 122 -21 0 -104 -67 -163 -130 -108 -117
-187 -297 -187 -427 0 -29 -4 -53 -10 -53 -5 0 -22 19 -37 42 -23 33 -28 55
-31 114 -5 95 20 178 89 299 29 50 61 107 72 128 10 20 25 37 31 37 7 0 25 14
42 31 40 43 159 126 219 153 160 73 294 88 445 50z"/>
<path d="M2982 5384 c-29 -20 -70 -101 -94 -184 -21 -75 -37 -247 -21 -237 20
13 106 150 130 210 31 76 43 196 21 215 -11 9 -19 8 -36 -4z"/>
<path d="M5967 2610 c-39 -34 -90 -124 -107 -190 -30 -113 -34 -236 -6 -227
23 7 109 125 147 202 43 88 76 202 66 228 -10 28 -62 21 -100 -13z"/>
<path d="M4009 2411 c-74 -74 -3 -201 113 -201 64 0 74 40 33 127 -29 63 -66
103 -95 103 -12 0 -35 -13 -51 -29z"/>
<path d="M3811 2173 c-44 -88 -65 -198 -65 -338 0 -186 41 -302 117 -338 47
-23 75 -21 119 6 75 46 145 166 192 328 25 90 55 284 44 294 -3 4 -21 -2 -40
-11 -21 -12 -54 -18 -94 -18 -70 0 -129 29 -195 95 -21 21 -41 39 -44 39 -3 0
-18 -26 -34 -57z"/>
<path d="M2595 2140 c-75 -15 -96 -27 -90 -52 2 -13 18 -104 35 -203 17 -99
48 -272 70 -385 21 -113 51 -281 65 -375 34 -216 29 -201 63 -179 177 115 298
327 331 576 18 137 -7 296 -65 411 -79 155 -246 240 -409 207z"/>
<path d="M988 5959 c-10 -5 -18 -20 -18 -32 0 -53 89 -176 150 -207 75 -38
170 -18 170 36 0 113 -212 256 -302 203z"/>
<path d="M5964 5780 c-96 -39 -135 -250 -70 -378 27 -54 73 -92 112 -92 33 0
110 75 140 136 47 95 34 224 -29 293 -40 43 -105 61 -153 41z"/>
<path d="M6712 5198 c-83 -14 -172 -94 -220 -198 -31 -66 -35 -157 -9 -206 16
-32 69 -64 104 -64 40 0 147 64 208 124 99 97 130 178 100 254 -29 71 -98 106
-183 90z m-66 -215 c-23 -42 -36 -59 -36 -48 0 12 38 75 45 75 3 0 -1 -12 -9
-27z"/>
<path d="M304 5110 c-94 -19 -168 -70 -207 -144 -32 -62 -30 -164 5 -232 58
-110 159 -163 325 -172 85 -4 113 -1 172 17 156 47 231 183 169 300 -82 152
-304 262 -464 231z"/>
<path d="M467 4199 c-28 -16 -20 -86 21 -165 13 -27 22 -33 64 -38 67 -9 76 0
38 39 -17 17 -48 64 -68 103 -32 60 -40 69 -55 61z"/>
<path d="M6594 3904 c-139 -49 -211 -219 -126 -296 32 -27 87 -48 132 -48 89
0 229 69 269 133 48 78 16 167 -74 208 -49 22 -142 24 -201 3z"/>
<path d="M6563 3435 c-47 -20 -61 -56 -40 -100 20 -42 54 -50 176 -42 142 9
177 34 125 88 -31 33 -133 69 -193 69 -20 -1 -51 -7 -68 -15z"/>
<path d="M1110 1642 c-44 -22 -46 -51 -5 -71 40 -20 198 -21 243 -2 61 26 37
55 -64 76 -91 19 -132 19 -174 -3z"/>
<path d="M5726 1268 c-44 -62 14 -190 100 -218 26 -9 39 -8 63 4 50 26 51 66
2 110 -12 11 -21 29 -21 41 0 27 -52 69 -97 79 -25 6 -34 3 -47 -16z"/>
<path d="M1490 1252 c-8 -5 -37 -20 -65 -33 -66 -32 -73 -63 -19 -85 76 -32
224 14 224 70 0 33 -103 68 -140 48z"/>
<path d="M5075 1204 c-50 -54 -37 -174 27 -248 29 -32 40 -38 89 -43 72 -7 89
8 89 81 0 126 -68 236 -144 236 -27 0 -44 -7 -61 -26z"/>
<path d="M3933 910 c-40 -24 -66 -62 -61 -91 5 -34 71 -64 144 -64 71 0 108
17 124 56 35 85 -114 156 -207 99z"/>
</g>
</svg>
